<?xml version="1.0" encoding="UTF-8" standalone="no"?>
<!-- Created with Inkscape (http://www.inkscape.org/) -->

<svg
   version="1.1"
   id="svg2"
   width="2800"
   height="2800"
   viewBox="0 0 2800 2800"
   sodipodi:docname="259.eps"
   xmlns:inkscape="http://www.inkscape.org/namespaces/inkscape"
   xmlns:sodipodi="http://sodipodi.sourceforge.net/DTD/sodipodi-0.dtd"
   xmlns="http://www.w3.org/2000/svg"
   xmlns:svg="http://www.w3.org/2000/svg">
  <defs
     id="defs6" />
  <sodipodi:namedview
     id="namedview4"
     pagecolor="#ffffff"
     bordercolor="#000000"
     borderopacity="0.25"
     inkscape:showpageshadow="2"
     inkscape:pageopacity="0.0"
     inkscape:pagecheckerboard="0"
     inkscape:deskcolor="#d1d1d1" />
  <g
     id="g8"
     inkscape:groupmode="layer"
     inkscape:label="ink_ext_XXXXXX"
     transform="matrix(1.3333333,0,0,-1.3333333,0,2800)">
    <g
       id="g10"
       transform="scale(0.1)">
      <path
         d="M 0,21000 H 21000 V 0 H 0 v 21000"
         style="fill:#070304;fill-opacity:1;fill-rule:evenodd;stroke:none"
         id="path12" />
      <path
         d="m 13922.3,11887.2 c 411.7,1240.1 -186.1,1475.7 -186.1,1475.7 h 1428.7 C 14427,12998.4 13922.3,11887.2 13922.3,11887.2 Z M 13434.9,7647 h -1546.5 l 114.1,79.3 v 2757 l -1589.9,2794.1 -121.6,85.5 h 1668.1 l -85.6,-64.4 1439.8,-2528.8 V 7733.8 Z M 7310.86,9016.1 c 0,99.3 -21.08,192.3 -57.04,279 -114.09,271.6 -372.05,457.7 -680.85,457.7 -256.73,0 -493.6,-135.2 -622.59,-343.5 -71.91,-106.7 -114.08,-235.7 -114.08,-372.1 0,-1031.8 945,-1339.4 945,-1339.4 0,0 -451.42,235.6 -536.99,651.1 100.47,-49.6 214.54,-78.1 328.66,-78.1 409.25,0 737.89,336.1 737.89,737.9 z m 724.26,4346.8 121.55,-85.5 V 9308.8 c 0,-1474.6 -845.81,-1661.8 -845.81,-1661.8 995.87,-114.1 2141.81,652.3 2141.81,1741.2 v 3889.2 l 121.53,85.5 H 8035.12"
         style="fill:#fefefe;fill-opacity:1;fill-rule:nonzero;stroke:none"
         id="path14" />
    </g>
  </g>
</svg>
