<svg aria-hidden="true" class="icon icon-color-hand-drawn" fill="none" height="22" stroke="currentColor" stroke-linecap="round" stroke-linejoin="round" stroke-width="1.8" viewBox="0 0 100 100" width="22" x="0px" xmlns="http://www.w3.org/2000/svg" y="0px"> <polygon fill="#565fa1" points="1,39.002 49.999,16 99,38.996 49.999,62 15,45.573 14.575,46.479 7.575,43.193 8,42.288"></polygon><path d="M50,34.065c-10.853,0-27,1.963-27,7.37V41.5c0,0.072,0,4.482,0,9.5c0,6.706,0,14.5,0,14.5h54 c0,0,0-8.596,0-15.5l0,0v-7.42c0-0.668,0-1.059,0-1.08v-0.065C77,36.028,60.853,34.065,50,34.065z" fill="#a3a3cd"></path><path d="M11.5,57c-0.276,0-0.5-0.224-0.5-0.5v-17c0-0.276,0.224-0.5,0.5-0.5s0.5,0.224,0.5,0.5v17 C12,56.776,11.776,57,11.5,57z" fill="#1f212b"></path><ellipse cx="50" cy="65.75" fill="#565fa1" rx="26.5" ry="6.25"></ellipse><path d="M77,65.5h-1c0-2.602-10.678-5.5-26-5.5s-26,2.898-26,5.5h-1c0-4.222,13.911-6.5,27-6.5 S77,61.278,77,65.5z" fill="#1f212b"></path><path d="M50,73c-13.914,0-28-2.576-28-7.5h2c0,2.243,10.129,5.5,26,5.5s26-3.257,26-5.5h2 C78,70.424,63.914,73,50,73z" fill="#1f212b"></path><path d="M16.5,73.5c0,4.167-5,11-5,11s-5-6.833-5-11c0-2.761,2.239-5,5-5S16.5,70.739,16.5,73.5z" fill="#fef6aa"></path><path d="M11.5,85c-0.159,0-0.31-0.076-0.403-0.205C10.889,84.511,6,77.781,6,73.5c0-3.033,2.468-5.5,5.5-5.5 s5.5,2.467,5.5,5.5c0,4.281-4.889,11.011-5.097,11.295C11.81,84.924,11.659,85,11.5,85z M11.5,69C9.019,69,7,71.019,7,73.5 c0,3.273,3.326,8.417,4.5,10.129C12.674,81.917,16,76.773,16,73.5C16,71.019,13.981,69,11.5,69z" fill="#1f212b"></path><path d="M14.5,69.5h-6v-2c0-1.105,0.895-2,2-2h2c1.105,0,2,0.895,2,2V69.5z" fill="#f9e65c"></path><path d="M14.5,70h-6C8.224,70,8,69.776,8,69.5v-2c0-1.378,1.121-2.5,2.5-2.5h2c1.379,0,2.5,1.122,2.5,2.5v2 C15,69.776,14.776,70,14.5,70z M9,69h5v-1.5c0-0.827-0.673-1.5-1.5-1.5h-2C9.673,66,9,66.673,9,67.5V69z" fill="#1f212b"></path><path d="M77,66.5c-0.553,0-1-0.448-1-1V49.324c0-0.388,0.224-0.74,0.575-0.905l20.071-9.423L49.999,17.104 L3.354,39.002l5.071,2.38c0.5,0.235,0.715,0.83,0.48,1.33c-0.234,0.5-0.828,0.715-1.33,0.48l-7-3.286C0.225,39.743,0,39.39,0,39.002 s0.224-0.74,0.575-0.905l48.999-23.002c0.27-0.126,0.58-0.126,0.85,0l49.001,22.996c0.351,0.165,0.575,0.518,0.575,0.905 s-0.224,0.74-0.575,0.905L78,49.959V65.5C78,66.052,77.553,66.5,77,66.5z" fill="#1f212b"></path><path d="M77,66.5L77,66.5c-0.552,0-1-0.448-1-1V49.324c0-0.388,0.224-0.74,0.575-0.905l20.071-9.423 L49.999,17.104L3.354,39.002l5.071,2.38c0.5,0.235,0.715,0.83,0.48,1.33c-0.235,0.5-0.831,0.715-1.33,0.48l-7-3.286 C0.224,39.743,0,39.39,0,39.002s0.224-0.74,0.575-0.905l48.999-23.002c0.269-0.126,0.58-0.126,0.85,0l49.001,22.996 c0.351,0.165,0.575,0.518,0.575,0.905s-0.224,0.74-0.575,0.905L78,49.959V65.5C78,66.052,77.552,66.5,77,66.5z" fill="#1f212b"></path><path d="M23,66.5c-0.552,0-1-0.448-1-1V49.963l-7.425-3.485c-0.5-0.235-0.715-0.83-0.48-1.33 c0.235-0.501,0.83-0.716,1.33-0.48l8,3.755C23.776,48.587,24,48.94,24,49.328V65.5C24,66.052,23.552,66.5,23,66.5z" fill="#1f212b"></path><path d="M11.5,61c-0.276,0-0.5-0.224-0.5-0.5v-1.125c0-0.276,0.224-0.5,0.5-0.5s0.5,0.224,0.5,0.5V60.5 C12,60.776,11.776,61,11.5,61z" fill="#1f212b"></path><path d="M11.5,66c-0.276,0-0.5-0.224-0.5-0.5v-3c0-0.276,0.224-0.5,0.5-0.5s0.5,0.224,0.5,0.5v3 C12,65.776,11.776,66,11.5,66z" fill="#1f212b"></path><path d="M59.501,35.513c-0.017,0-0.032-0.001-0.049-0.002c-1.578-0.152-3.252-0.267-4.975-0.343 c-0.275-0.012-0.489-0.246-0.477-0.521c0.012-0.275,0.195-0.509,0.521-0.478c1.739,0.077,3.43,0.193,5.025,0.347 c0.275,0.026,0.477,0.271,0.45,0.545C59.973,35.32,59.755,35.513,59.501,35.513z" fill="#1f212b"></path><path d="M64.501,36.146c-0.027,0-0.054-0.002-0.081-0.006c-0.96-0.155-1.959-0.291-2.979-0.414 c-0.274-0.033-0.47-0.282-0.437-0.556c0.033-0.275,0.287-0.466,0.556-0.437c1.034,0.125,2.047,0.262,3.021,0.419 c0.272,0.044,0.458,0.301,0.413,0.573C64.954,35.972,64.741,36.146,64.501,36.146z" fill="#1f212b"></path><path d="M67.5,36.702c-0.035,0-0.07-0.003-0.106-0.012c-0.213-0.046-0.436-0.089-0.658-0.131l-0.332-0.064 c-0.271-0.054-0.447-0.316-0.394-0.587s0.319-0.448,0.587-0.394l0.327,0.063c0.23,0.044,0.462,0.088,0.683,0.137 c0.27,0.059,0.441,0.325,0.382,0.595C67.938,36.542,67.73,36.702,67.5,36.702z" fill="#1f212b"></path><path d="M76.5,51.5c-0.276,0-0.5-0.224-0.5-0.5v-9.565c0-1.591-2.354-3.106-6.631-4.265 c-0.267-0.072-0.424-0.347-0.352-0.613c0.072-0.266,0.344-0.426,0.613-0.352C74.521,37.53,77,39.29,77,41.435V51 C77,51.276,76.776,51.5,76.5,51.5z" fill="#1f212b"></path><path d="M23.5,51.5c-0.276,0-0.5-0.224-0.5-0.5v-9.565c0-5.407,16.146-7.37,27-7.37l0.503,0.006 c0.276,0.001,0.499,0.227,0.497,0.503c-0.002,0.276-0.255,0.501-0.503,0.497L50,35.065c-14.337,0-26,2.857-26,6.37V51 C24,51.276,23.776,51.5,23.5,51.5z" fill="#1f212b"></path> </svg>