<?xml version="1.0" encoding="UTF-8" standalone="no"?>
<!-- Generated favicon with background matching site (#fffff8) -->
<svg xmlns="http://www.w3.org/2000/svg" width="64" height="64" viewBox="0 0 2800 2800" role="img" aria-label="Joshua Yang">
  <rect width="100%" height="100%" fill="#fffff8" />
  <g transform="matrix(1.3333333,0,0,-1.3333333,0,2800) scale(0.1)">
    <!-- background rect from original replaced by page background -->
    <!-- main glyph (dark color) -->
    <path d="m13922.3,11887.2c411.7,1240.1-186.1,1475.7-186.1,1475.7h1428.7C14427,12998.4,13922.3,11887.2,13922.3,11887.2Z M13434.9,7647h-1546.5l114.1,79.3v2757l-1589.9,2794.1-121.6,85.5h1668.1l-85.6-64.4,1439.8-2528.8V7733.8Z M7310.86,9016.1c0,99.3-21.08,192.3-57.04,279-114.09,271.6-372.05,457.7-680.85,457.7-256.73,0-493.6-135.2-622.59-343.5-71.91-106.7-114.08-235.7-114.08-372.1,0-1031.8,945-1339.4,945-1339.4,0,0-451.42,235.6-536.99,651.1,100.47-49.6,214.54-78.1,328.66-78.1,409.25,0,737.89,336.1,737.89,737.9z m724.26,4346.8,121.55-85.5V9308.8c0-1474.6-845.81-1661.8-845.81-1661.8,995.87-114.1,2141.81,652.3,2141.81,1741.2v3889.2l121.53,85.5H8035.12"
          fill="#1B1B1D" fill-rule="nonzero" />
  </g>
</svg>
